<?xml version="1.0" encoding="UTF-8"?>
<svg version="1.1" xmlns="http://www.w3.org/2000/svg" width="577" height="433">
<path d="M0 0 C190.41 0 380.82 0 577 0 C577 142.89 577 285.78 577 433 C386.59 433 196.18 433 0 433 C0 290.11 0 147.22 0 0 Z " fill="#000000" transform="translate(0,0)"/>
<path d="M0 0 C1.25118311 0.6356509 2.50249015 1.2710579 3.75390625 1.90625 C4.40633301 2.23882813 5.05875977 2.57140625 5.73095703 2.9140625 C7.76185524 3.94350933 9.79935351 4.95846204 11.83984375 5.96875 C19.56717651 9.79610977 27.24860595 13.67791444 34.75 17.9375 C35.61302734 18.24171875 36.47605469 18.5459375 37.36523438 18.859375 C39.75 20.9375 39.75 20.9375 40.18782043 23.02494812 C40.33146926 25.86633107 40.31076726 28.66753742 40.23828125 31.51171875 C40.22766914 33.07017265 40.22766914 33.07017265 40.21684265 34.66011047 C40.18882688 37.98246909 40.12607264 41.30314978 40.0625 44.625 C40.03742653 46.87562673 40.01461171 49.12627983 39.99414062 51.37695312 C39.93897694 56.89770908 39.85527911 62.41748469 39.75 67.9375 C40.6692627 67.59468994 41.58852539 67.25187988 42.53564453 66.89868164 C48.85961831 64.58204819 54.95050293 62.41925939 61.625 61.375 C67.15022689 60.44643607 72.57068865 59.3230852 78 57.9375 C78.66435059 57.76887451 79.32870117 57.60024902 80.01318359 57.42651367 C83.06218502 56.64594816 86.10355203 55.84137295 89.140625 55.015625 C104.42861637 50.94394891 112.03926274 55.32042374 125.75 62.9375 C125.75 126.6275 125.75 190.3175 125.75 255.9375 C123.11 256.5975 120.47 257.2575 117.75 257.9375 C117.75 258.5975 117.75 259.2575 117.75 259.9375 C117.05132812 260.20304687 116.35265625 260.46859375 115.6328125 260.7421875 C114.26769531 261.27199219 114.26769531 261.27199219 112.875 261.8125 C111.97007812 262.16054688 111.06515625 262.50859375 110.1328125 262.8671875 C107.62782993 263.82280895 107.62782993 263.82280895 105.75 265.9375 C102.1875 266.125 102.1875 266.125 98.75 265.9375 C98.42 265.6075 98.09 265.2775 97.75 264.9375 C95.441218 264.63661357 93.12761674 264.37247002 90.8125 264.125 C85.25039526 263.46505601 80.54353623 262.26419352 75.4453125 259.95703125 C69.78232278 257.81494383 63.69616366 256.9840248 57.75 255.9375 C57.75 255.2775 57.75 254.6175 57.75 253.9375 C57.1209375 253.88851563 56.491875 253.83953125 55.84375 253.7890625 C54.9878125 253.71429688 54.131875 253.63953125 53.25 253.5625 C52.4146875 253.49289062 51.579375 253.42328125 50.71875 253.3515625 C47.01088771 252.83441329 43.38197383 251.84549346 39.75 250.9375 C39.75 266.7775 39.75 282.6175 39.75 298.9375 C28.56415929 304.53042035 28.56415929 304.53042035 24.3203125 306.5078125 C23.423125 306.92933594 22.5259375 307.35085938 21.6015625 307.78515625 C19.76163169 308.64712957 17.92045332 309.5064442 16.078125 310.36328125 C15.18867188 310.78222656 14.29921875 311.20117188 13.3828125 311.6328125 C12.58762207 312.00422363 11.79243164 312.37563477 10.97314453 312.75830078 C8.70282873 313.96252056 6.78943931 315.38152087 4.75 316.9375 C3.06303263 317.67587668 1.35281062 318.36303101 -0.375 319 C-4.16889765 320.3912444 -4.16889765 320.3912444 -7.25 322.9375 C-12.09943415 322.74732611 -15.34993461 321.51376011 -19.44921875 318.96875 C-21.84988648 317.59396414 -24.41094032 316.77067255 -27.01171875 315.8515625 C-30.71399958 314.3396363 -34.13208651 312.31845574 -37.6171875 310.3671875 C-40.761229 308.659889 -43.93079966 307.26518014 -47.25 305.9375 C-47.25 305.2775 -47.25 304.6175 -47.25 303.9375 C-48.24 303.9375 -49.23 303.9375 -50.25 303.9375 C-50.25 303.2775 -50.25 302.6175 -50.25 301.9375 C-53.22 301.2775 -56.19 300.6175 -59.25 299.9375 C-59.25 283.7675 -59.25 267.5975 -59.25 250.9375 C-61.89 251.9275 -64.53 252.9175 -67.25 253.9375 C-69.40331984 254.45492394 -71.57169143 254.91314343 -73.75 255.3125 C-75.68166016 255.68181641 -75.68166016 255.68181641 -77.65234375 256.05859375 C-78.73104736 256.26331299 -78.73104736 256.26331299 -79.83154297 256.47216797 C-84.66612346 257.40238303 -89.48990686 258.3847529 -94.3125 259.375 C-95.35019531 259.58705078 -96.38789063 259.79910156 -97.45703125 260.01757812 C-103.15637789 261.2073529 -108.69150501 262.58332341 -114.25 264.3125 C-122.97651317 266.86429627 -126.95108781 265.77008895 -135 261.5625 C-137.10413549 260.39076578 -139.19012968 259.18541085 -141.25 257.9375 C-142.31398262 257.3748601 -142.31398262 257.3748601 -143.39945984 256.80085373 C-145.71066084 254.47364944 -145.74882325 252.76268486 -145.82227039 249.55765271 C-145.81880446 248.824104 -145.81533854 248.09055529 -145.81176758 247.33477783 C-145.82365207 246.55311146 -145.83553656 245.7714451 -145.84778118 244.96609187 C-145.882559 242.33822516 -145.88856372 239.7110866 -145.89453125 237.08300781 C-145.91304225 235.20230548 -145.93314067 233.3216182 -145.95471191 231.44094849 C-146.00723668 226.32512264 -146.03299302 221.20950682 -146.05075455 216.09345341 C-146.06247379 212.89777098 -146.07889229 209.70214611 -146.09677124 206.50649261 C-146.15148051 196.50960784 -146.19014152 186.51285441 -146.2055788 176.51583028 C-146.22350145 164.97238308 -146.29368169 153.43083066 -146.40958118 141.88795972 C-146.49603662 132.9680789 -146.53639508 124.04873123 -146.54174328 115.12843585 C-146.5459371 109.7993941 -146.56958666 104.47213269 -146.64102173 99.1435318 C-146.7069341 94.12922497 -146.71558508 89.11803635 -146.6804657 84.10345078 C-146.6773828 82.26476309 -146.69477869 80.42590817 -146.73429871 78.58764267 C-146.84450032 73.14157198 -146.81170844 68.18463114 -145.25 62.9375 C-141.66994321 59.34459601 -137.98283132 57.6274279 -133.25 55.9375 C-132.40331253 55.56954945 -131.55662506 55.20159889 -130.6842804 54.82249832 C-125.21031272 52.47000071 -120.00542734 52.67016252 -114.25 53.9375 C-112.58279407 54.60281692 -110.91612835 55.2694891 -109.25 55.9375 C-107.65467794 56.27420114 -106.04888915 56.56381317 -104.4375 56.8125 C-97.59909733 57.98295437 -90.91996463 59.7123392 -84.20703125 61.43945312 C-80.28395976 62.43783958 -76.34563978 63.37610091 -72.41015625 64.32421875 C-70.25 64.9375 -70.25 64.9375 -69.25 65.9375 C-67.56816052 66.17037008 -65.8787584 66.35014166 -64.1875 66.5 C-62.80884766 66.62568359 -62.80884766 66.62568359 -61.40234375 66.75390625 C-60.69207031 66.81449219 -59.98179687 66.87507813 -59.25 66.9375 C-59.26110306 66.37009094 -59.27220612 65.80268188 -59.28364563 65.21807861 C-59.39424634 59.31351459 -59.46966958 53.40924463 -59.5246582 47.50390625 C-59.54980574 45.30000864 -59.58392827 43.09619445 -59.62719727 40.89257812 C-59.68783686 37.72505114 -59.71620749 34.5586264 -59.73828125 31.390625 C-59.76408768 30.40507629 -59.7898941 29.41952759 -59.81648254 28.40411377 C-59.81929123 21.55706334 -59.81929123 21.55706334 -56.93041992 18.41308594 C-56.04588135 17.92614258 -55.16134277 17.43919922 -54.25 16.9375 C-53.13625 16.256875 -52.0225 15.57625 -50.875 14.875 C-48.56362801 13.58979747 -46.32170657 12.54211576 -43.875 11.5 C-40.99436606 10.25834744 -38.45021102 8.94020706 -35.75 7.375 C-31.96030963 5.21689159 -28.48795739 3.92936237 -24.25 2.9375 C-24.25 2.2775 -24.25 1.6175 -24.25 0.9375 C-22.00438718 0.06987686 -19.75473745 -0.7817103 -17.5 -1.625 C-16.54867187 -1.9952832 -16.54867187 -1.9952832 -15.578125 -2.37304688 C-8.88585148 -4.84779385 -6.14989414 -3.13930643 0 0 Z " fill="#8B3222" transform="translate(298.25,11.0625)"/>
<path d="M0 0 C1.59532206 0.33670114 3.20111085 0.62631317 4.8125 0.875 C11.66277429 2.0474863 18.35348973 3.78071247 25.078125 5.51074219 C27.85875943 6.21861711 30.6489234 6.886697 33.4375 7.5625 C39.04993087 8.96369352 44.80525587 10.40262793 50 13 C50 20.26 50 27.52 50 35 C51.93101562 35.26554687 53.86203125 35.53109375 55.8515625 35.8046875 C64.72304502 37.07204215 73.54618116 38.59216832 82.375 40.125 C83.99736404 40.40513209 85.61975972 40.68508105 87.2421875 40.96484375 C91.16188709 41.64079194 95.0809142 42.32046386 99 43 C99 49.27 99 55.54 99 62 C95.50109335 62.61106792 92.00102169 63.21375562 88.5 63.8125 C87.55640625 63.97814453 86.6128125 64.14378906 85.640625 64.31445312 C74.11927615 66.27160533 62.63859537 67.54517558 51 69 C50.67 92.1 50.34 115.2 50 139 C54.62 139 59.24 139 64 139 C64.99 139.33 65.98 139.66 67 140 C69.39245095 140.31822201 71.78911781 140.60509322 74.1875 140.875 C82.55037556 141.85556843 90.73787153 143.37708191 99 145 C99 150.94 99 156.88 99 163 C101.64 163.33 104.28 163.66 107 164 C109.49194416 164.42570233 111.98032775 164.87273733 114.46484375 165.33984375 C115.48125694 165.53037071 115.48125694 165.53037071 116.51820374 165.7247467 C117.93935588 165.99169018 119.36028856 166.25980454 120.78100586 166.52905273 C122.92832407 166.93576205 125.07639504 167.33828823 127.22460938 167.74023438 C134.17683439 169.04685287 141.10683663 170.40571529 148 172 C145.1701431 173.88657127 143.68116709 174.45263662 140.45703125 175.1484375 C139.5556543 175.34727539 138.65427734 175.54611328 137.72558594 175.75097656 C136.76426758 175.9569043 135.80294922 176.16283203 134.8125 176.375 C132.81344894 176.81349731 130.81475239 177.25361379 128.81640625 177.6953125 C127.82914551 177.91348633 126.84188477 178.13166016 125.82470703 178.35644531 C120.75135674 179.51230974 115.72768301 180.85291338 110.703125 182.203125 C102.39960687 183.98995802 95.41867197 184.16212114 87.125 182.3125 C86.25077393 182.12824463 85.37654785 181.94398926 84.47583008 181.75415039 C78.81960332 180.52148376 73.40870791 178.92525552 67.96484375 176.94921875 C62.10357516 175.07268612 56.0446355 174.11937694 50 173 C50 179.93 50 186.86 50 194 C42.75 194.75 42.75 194.75 40.48730469 194.95605469 C37.27205094 195.33828765 35.41234948 195.56515873 33.14697266 197.95410156 C30.46814301 200.50681847 28.5877585 200.86620755 24.9765625 201.5625 C23.79674805 201.80025146 22.61693359 202.03800293 21.40136719 202.28295898 C20.15516602 202.51958252 18.90896484 202.75620605 17.625 203 C6.08213738 205.30090794 6.08213738 205.30090794 -5.25 208.4375 C-13.82915139 210.95889443 -17.83693986 209.76157195 -25.75 205.625 C-27.85413549 204.45326578 -29.94012968 203.24791085 -32 202 C-32.70932175 201.62490673 -33.41864349 201.24981346 -34.14945984 200.86335373 C-36.46066084 198.53614944 -36.49882325 196.82518486 -36.57227039 193.62015271 C-36.56880446 192.886604 -36.56533854 192.15305529 -36.56176758 191.39727783 C-36.57365207 190.61561146 -36.58553656 189.8339451 -36.59778118 189.02859187 C-36.632559 186.40072516 -36.63856372 183.7735866 -36.64453125 181.14550781 C-36.66304225 179.26480548 -36.68314067 177.3841182 -36.70471191 175.50344849 C-36.75723668 170.38762264 -36.78299302 165.27200682 -36.80075455 160.15595341 C-36.81247379 156.96027098 -36.82889229 153.76464611 -36.84677124 150.56899261 C-36.90148051 140.57210784 -36.94014152 130.57535441 -36.9555788 120.57833028 C-36.97350145 109.03488308 -37.04368169 97.49333066 -37.15958118 85.95045972 C-37.24603662 77.0305789 -37.28639508 68.11123123 -37.29174328 59.19093585 C-37.2959371 53.8618941 -37.31958666 48.53463269 -37.39102173 43.2060318 C-37.4569341 38.19172497 -37.46558508 33.18053635 -37.4304657 28.16595078 C-37.4273828 26.32726309 -37.44477869 24.48840817 -37.48429871 22.65014267 C-37.59450032 17.20407198 -37.56170844 12.24713114 -36 7 C-32.41994321 3.40709601 -28.73283132 1.6899279 -24 0 C-23.15331253 -0.36795055 -22.30662506 -0.73590111 -21.4342804 -1.11500168 C-14.08547183 -4.27323271 -7.17723705 -2.87761298 0 0 Z " fill="#DF5343" transform="translate(189,67)"/>
<path d="M0 0 C0.33 0 0.66 0 1 0 C1 5.61 1 11.22 1 17 C2.22332031 17.02578125 3.44664062 17.0515625 4.70703125 17.078125 C15.29831813 17.39923366 25.25236412 18.55169177 35.5703125 20.96484375 C40.35651162 22.0833118 45.18030156 23.03606031 50 24 C50 47.1 50 70.2 50 94 C21.11111111 98.44444444 21.11111111 98.44444444 9.4140625 99.60546875 C5.87305358 99.93996275 5.87305358 99.93996275 2 101 C1.67 106.61 1.34 112.22 1 118 C0.67 118 0.34 118 0 118 C0 112.06 0 106.12 0 100 C-2.64 100 -5.28 100 -8 100 C-10.1194053 99.59350369 -12.22675978 99.11640052 -14.3125 98.5625 C-19.48496255 97.27992198 -24.44365681 96.54208667 -29.7578125 96.2109375 C-32 96 -32 96 -35 95 C-37.39254576 94.77439324 -39.78928123 94.59151405 -42.1875 94.4375 C-44.09595703 94.31181641 -44.09595703 94.31181641 -46.04296875 94.18359375 C-47.01878906 94.12300781 -47.99460938 94.06242187 -49 94 C-49.02312545 84.89040835 -49.04091612 75.78082674 -49.05181217 66.6712122 C-49.05704056 62.44168629 -49.0641374 58.2121804 -49.07543945 53.98266602 C-49.08626991 49.90431457 -49.09227717 45.82598243 -49.09487724 41.74761772 C-49.09673121 40.18822361 -49.10035127 38.6288306 -49.10573006 37.06944466 C-49.11294262 34.89270838 -49.11399085 32.71605286 -49.11352539 30.53930664 C-49.115746 29.29798477 -49.11796661 28.0566629 -49.12025452 26.77772522 C-49 24 -49 24 -48 23 C-46.45910024 22.7369425 -44.90823051 22.53184624 -43.35546875 22.3515625 C-42.37739258 22.23466064 -41.39931641 22.11775879 -40.39160156 21.99731445 C-39.33424805 21.87445068 -38.27689453 21.75158691 -37.1875 21.625 C-28.17922416 20.54592585 -19.20711019 19.33903756 -10.24682617 17.91455078 C-6.77000301 17.37055556 -3.52920575 17 0 17 C0 11.39 0 5.78 0 0 Z " fill="#8C3121" transform="translate(288,112)"/>
<path d="M0 0 C0 23.43 0 46.86 0 71 C-11.18584071 76.59292035 -11.18584071 76.59292035 -15.4296875 78.5703125 C-16.77546875 79.20259766 -16.77546875 79.20259766 -18.1484375 79.84765625 C-19.98836831 80.70962957 -21.82954668 81.5689442 -23.671875 82.42578125 C-25.00605469 83.05419922 -25.00605469 83.05419922 -26.3671875 83.6953125 C-27.55997314 84.2524292 -27.55997314 84.2524292 -28.77685547 84.82080078 C-31.04717127 86.02502056 -32.96056069 87.44402087 -35 89 C-36.68696737 89.73837668 -38.39718938 90.42553101 -40.125 91.0625 C-43.91889765 92.4537444 -43.91889765 92.4537444 -47 95 C-51.84943415 94.80982611 -55.09993461 93.57626011 -59.19921875 91.03125 C-61.59988648 89.65646414 -64.16094032 88.83317255 -66.76171875 87.9140625 C-70.46399958 86.4021363 -73.88208651 84.38095574 -77.3671875 82.4296875 C-80.511229 80.722389 -83.68079966 79.32768014 -87 78 C-87 77.34 -87 76.68 -87 76 C-87.99 76 -88.98 76 -90 76 C-90 75.34 -90 74.68 -90 74 C-92.97 73.34 -95.94 72.68 -99 72 C-99 55.83 -99 39.66 -99 23 C-101.64 23.99 -104.28 24.98 -107 26 C-109.96875 26.51171875 -109.96875 26.51171875 -112.5 26.6875 C-113.78390625 26.78611328 -113.78390625 26.78611328 -115.09375 26.88671875 C-115.7228125 26.92410156 -116.351875 26.96148437 -117 27 C-114.56923653 23.23231662 -114.56923653 23.23231662 -112.171875 22.25390625 C-107.7876829 21.74136581 -103.40822065 21.94752118 -99 22 C-99 15.07 -99 8.14 -99 1 C-92.98228848 1.66863461 -87.53499599 2.42958922 -81.75 3.9375 C-80.7290625 4.19176758 -80.7290625 4.19176758 -79.6875 4.45117188 C-76.90141918 5.16119053 -74.21555252 5.91033015 -71.55859375 7.015625 C-52.37634847 14.39566441 -33.88733746 8.79616664 -15.05859375 3.40234375 C-3.07343011 0 -3.07343011 0 0 0 Z " fill="#DF5443" transform="translate(338,239)"/>
<path d="M0 0 C0.33 26.73 0.66 53.46 1 81 C8.5836198 83.27508594 15.88011979 85.22140493 23.6171875 86.68359375 C30.35363764 87.96340148 36.66404563 89.35041908 43 92 C44.99640639 92.67735217 46.99504414 93.34838935 49 94 C49 94.33 49 94.66 49 95 C46.3347536 95.50881977 43.66821581 96.00720141 41 96.5 C40.25621094 96.64308594 39.51242187 96.78617187 38.74609375 96.93359375 C33.74779985 97.84632568 29.08079684 98.13856719 24 98 C24 98.66 24 99.32 24 100 C21.0228781 100.53606366 18.04435827 101.05405209 15.0625 101.5625 C14.23169922 101.71396484 13.40089844 101.86542969 12.54492188 102.02148438 C11.71669922 102.16005859 10.88847656 102.29863281 10.03515625 102.44140625 C9.2862915 102.57232666 8.53742676 102.70324707 7.76586914 102.83813477 C1.02085923 103.23286877 -5.80205076 101.77548662 -12.4375 100.66015625 C-13.58496704 100.46962929 -13.58496704 100.46962929 -14.75561523 100.2752533 C-16.35908598 100.0083456 -17.9623563 99.74023121 -19.56542969 99.47094727 C-21.99354977 99.06358215 -24.42249217 98.66142099 -26.8515625 98.25976562 C-28.42192708 97.99770773 -29.99224132 97.73534796 -31.5625 97.47265625 C-32.275271 97.3548732 -32.98804199 97.23709015 -33.72241211 97.11573792 C-38.87451095 96.24530382 -43.88162283 95.13741715 -49 94 C-49 86.74 -49 79.48 -49 72 C-50.65 71.67 -52.3 71.34 -54 71 C-54 70.67 -54 70.34 -54 70 C-52.35 70 -50.7 70 -49 70 C-49.01110306 69.43259094 -49.02220612 68.86518188 -49.03364563 68.28057861 C-49.14424634 62.37601459 -49.21966958 56.47174463 -49.2746582 50.56640625 C-49.29980574 48.36250864 -49.33392827 46.15869445 -49.37719727 43.95507812 C-49.43783686 40.78755114 -49.46620749 37.6211264 -49.48828125 34.453125 C-49.51408768 33.46757629 -49.5398941 32.48202759 -49.56648254 31.46661377 C-49.56929123 24.61956334 -49.56929123 24.61956334 -46.68041992 21.47558594 C-45.79588135 20.98864258 -44.91134277 20.50169922 -44 20 C-42.329375 18.9790625 -42.329375 18.9790625 -40.625 17.9375 C-38.31362801 16.65229747 -36.07170657 15.60461576 -33.625 14.5625 C-30.74436606 13.32084744 -28.20021102 12.00270706 -25.5 10.4375 C-21.71030963 8.27939159 -18.23795739 6.99186237 -14 6 C-14 5.34 -14 4.68 -14 4 C-12.42032193 3.32471777 -10.83608097 2.66010306 -9.25 2 C-8.36828125 1.62875 -7.4865625 1.2575 -6.578125 0.875 C-4 0 -4 0 0 0 Z " fill="#8A3122" transform="translate(288,8)"/>
<path d="M0 0 C0 69.96 0 139.92 0 212 C0.99 212.33 1.98 212.66 3 213 C-5.0994972 212.84118633 -11.17994064 209.13172908 -18 205 C-18.70932175 204.62490673 -19.41864349 204.24981346 -20.14945984 203.86335373 C-22.46066084 201.53614944 -22.49882325 199.82518486 -22.57227039 196.62015271 C-22.56880446 195.886604 -22.56533854 195.15305529 -22.56176758 194.39727783 C-22.57365207 193.61561146 -22.58553656 192.8339451 -22.59778118 192.02859187 C-22.632559 189.40072516 -22.63856372 186.7735866 -22.64453125 184.14550781 C-22.66304225 182.26480548 -22.68314067 180.3841182 -22.70471191 178.50344849 C-22.75723668 173.38762264 -22.78299302 168.27200682 -22.80075455 163.15595341 C-22.81247379 159.96027098 -22.82889229 156.76464611 -22.84677124 153.56899261 C-22.90148051 143.57210784 -22.94014152 133.57535441 -22.9555788 123.57833028 C-22.97350145 112.03488308 -23.04368169 100.49333066 -23.15958118 88.95045972 C-23.24603662 80.0305789 -23.28639508 71.11123123 -23.29174328 62.19093585 C-23.2959371 56.8618941 -23.31958666 51.53463269 -23.39102173 46.2060318 C-23.4569341 41.19172497 -23.46558508 36.18053635 -23.4304657 31.16595078 C-23.4273828 29.32726309 -23.44477869 27.48840817 -23.48429871 25.65014267 C-23.59450182 20.20399806 -23.55873889 15.24798027 -22 10 C-18.4289497 6.38567823 -14.7550385 4.65817213 -10 3 C-9.09409622 2.65122425 -8.18819244 2.3024485 -7.25483704 1.94310379 C-1.86567746 0 -1.86567746 0 0 0 Z " fill="#8B3122" transform="translate(175,64)"/>
<path d="M0 0 C10.1167002 3.3722334 10.1167002 3.3722334 14.9375 6.125 C15.85402344 6.64320312 16.77054687 7.16140625 17.71484375 7.6953125 C18.46894531 8.12585938 19.22304688 8.55640625 20 9 C20.66 9.33 21.32 9.66 22 10 C22 73.69 22 137.38 22 203 C18.04 203.99 18.04 203.99 14 205 C14 205.66 14 206.32 14 207 C12.41800369 207.64910154 10.83434276 208.29414694 9.25 208.9375 C7.92742187 209.47697266 7.92742187 209.47697266 6.578125 210.02734375 C4 211 4 211 0 212 C0 142.04 0 72.08 0 0 Z " fill="#E05344" transform="translate(402,64)"/>
<path d="M0 0 C3.85962972 0.96490743 6.72092329 2.26102945 10.25 4.0625 C11.50118311 4.6981509 12.75249015 5.3335579 14.00390625 5.96875 C14.65633301 6.30132813 15.30875977 6.63390625 15.98095703 6.9765625 C18.01185524 8.00600933 20.04935351 9.02096204 22.08984375 10.03125 C29.81717651 13.85860977 37.49860595 17.74041444 45 22 C45.86139084 22.3846492 46.72278168 22.7692984 47.61027527 23.16560364 C50 25 50 25 50.60127258 27.98027039 C50.59016953 29.19938614 50.57906647 30.41850189 50.56762695 31.67456055 C50.56835709 32.347995 50.56908722 33.02142944 50.56983948 33.715271 C50.56635752 35.93990816 50.5274743 38.1624478 50.48828125 40.38671875 C50.47895512 41.92941646 50.47183806 43.47212899 50.46684265 45.0148468 C50.44775659 49.07423834 50.39864337 53.13273456 50.34332275 57.19177246 C50.29216408 61.3341053 50.26933593 65.4765829 50.24414062 69.61914062 C50.19052492 77.74650451 50.10519419 85.87314087 50 94 C45.1908091 94.12022977 41.93750469 93.69367926 37.484375 91.85546875 C33.04894928 90.32817593 28.42375157 89.62871672 23.82421875 88.75 C15.52937516 87.12322782 7.93587133 84.97595175 0 82 C0 54.94 0 27.88 0 0 Z " fill="#DF5443" transform="translate(288,7)"/>
<path d="M0 0 C6.01771152 0.66863461 11.46500401 1.42958922 17.25 2.9375 C18.2709375 3.19176758 18.2709375 3.19176758 19.3125 3.45117188 C22.14073057 4.17193218 24.87132517 4.94841327 27.58203125 6.03515625 C30.49067273 7.19579348 33.37813721 7.83695789 36.4375 8.5 C40.7929008 9.44615555 44.73768657 10.57922886 49 12 C49 38.73 49 65.46 49 93 C50.485 93.495 50.485 93.495 52 94 C47.1004651 93.60003797 44.05917027 92.67503919 39.80078125 90.03125 C37.40011352 88.65646414 34.83905968 87.83317255 32.23828125 86.9140625 C28.53600042 85.4021363 25.11791349 83.38095574 21.6328125 81.4296875 C18.488771 79.722389 15.31920034 78.32768014 12 77 C12 76.34 12 75.68 12 75 C11.01 75 10.02 75 9 75 C9 74.34 9 73.68 9 73 C6.03 72.34 3.06 71.68 0 71 C0 54.83 0 38.66 0 22 C-2.64 22.99 -5.28 23.98 -8 25 C-10.96875 25.51171875 -10.96875 25.51171875 -13.5 25.6875 C-14.78390625 25.78611328 -14.78390625 25.78611328 -16.09375 25.88671875 C-16.7228125 25.92410156 -17.351875 25.96148437 -18 26 C-15.56923653 22.23231662 -15.56923653 22.23231662 -13.171875 21.25390625 C-8.7876829 20.74136581 -4.40822065 20.94752118 0 21 C0 14.07 0 7.14 0 0 Z " fill="#8B3222" transform="translate(239,240)"/>
<path d="M0 0 C8.76044438 0.05909237 17.56707673 1.37092988 26.25 2.4375 C27.25490479 2.55963867 28.25980957 2.68177734 29.29516602 2.80761719 C30.27541748 2.93168945 31.25566895 3.05576172 32.265625 3.18359375 C33.12961914 3.29243896 33.99361328 3.40128418 34.88378906 3.51342773 C39.28045971 4.19993389 43.6364707 5.12729414 48 6 C48 29.1 48 52.2 48 76 C14.32786885 81.18032787 14.32786885 81.18032787 4.3125 81.0625 C2.79076172 81.04896484 2.79076172 81.04896484 1.23828125 81.03515625 C0.49964844 81.02355469 -0.23898437 81.01195312 -1 81 C-1.02312359 70.58657075 -1.04091517 60.17314756 -1.05181217 49.75969791 C-1.05704097 44.92483173 -1.06413854 40.08998306 -1.07543945 35.25512695 C-1.08626847 30.5932288 -1.09227686 25.93134754 -1.09487724 21.26943779 C-1.09673147 19.48675712 -1.10035203 17.70407741 -1.10573006 15.92140388 C-1.11294069 13.4333404 -1.11399093 10.94534757 -1.11352539 8.45727539 C-1.11712067 7.71281158 -1.12071594 6.96834778 -1.12442017 6.20132446 C-1.11405216 1.11405216 -1.11405216 1.11405216 0 0 Z " fill="#DF5443" transform="translate(290,130)"/>
<path d="M0 0 C4.19721295 1.01545475 8.39369762 1.88538215 12.63671875 2.6875 C19.39584237 3.97879526 25.65162146 5.34522352 32 8 C33.99640639 8.67735217 35.99504414 9.34838935 38 10 C38 10.33 38 10.66 38 11 C35.3347536 11.50881977 32.66821581 12.00720141 30 12.5 C29.25621094 12.64308594 28.51242187 12.78617188 27.74609375 12.93359375 C22.74779985 13.84632568 18.08079684 14.13856719 13 14 C13 14.66 13 15.32 13 16 C10.0228781 16.53606366 7.04435827 17.05405209 4.0625 17.5625 C3.23169922 17.71396484 2.40089844 17.86542969 1.54492188 18.02148438 C0.71669922 18.16005859 -0.11152344 18.29863281 -0.96484375 18.44140625 C-1.7137085 18.57232666 -2.46257324 18.70324707 -3.23413086 18.83813477 C-10.0176908 19.23512481 -16.8732142 17.76045943 -23.54296875 16.625 C-24.3150618 16.49561035 -25.08715485 16.3662207 -25.88264465 16.23291016 C-28.31799223 15.82425375 -30.75275032 15.41220203 -33.1875 15 C-34.8300398 14.72373035 -36.47261765 14.4476869 -38.11523438 14.171875 C-41.12938802 13.66545947 -44.14331715 13.15775104 -47.15698242 12.6484375 C-50.43733477 12.09493926 -53.71830991 11.54550097 -57 11 C-57 10.34 -57 9.68 -57 9 C-49.23693746 6.20353315 -41.30854557 4.24948902 -33.2890625 2.35571289 C-31.00261763 1.81312118 -28.72018487 1.25543502 -26.4375 0.69726562 C-8.18258464 -3.68216309 -8.18258464 -3.68216309 0 0 Z " fill="#611F17" transform="translate(299,92)"/>
<path d="M0 0 C1.39231328 0.2734872 2.78489219 0.54562561 4.17773438 0.81640625 C10.99523813 2.15167151 17.78950074 3.57988611 24.5625 5.125 C21.7326431 7.01157127 20.24366709 7.57763662 17.01953125 8.2734375 C16.1181543 8.47227539 15.21677734 8.67111328 14.28808594 8.87597656 C13.32676758 9.0819043 12.36544922 9.28783203 11.375 9.5 C9.37594894 9.93849731 7.37725239 10.37861379 5.37890625 10.8203125 C3.89801514 11.14757324 3.89801514 11.14757324 2.38720703 11.48144531 C-2.68614326 12.63730974 -7.70981699 13.97791338 -12.734375 15.328125 C-21.03781343 17.11494087 -28.01890306 17.28728542 -36.3125 15.4375 C-37.18600098 15.25324463 -38.05950195 15.06898926 -38.95947266 14.87915039 C-44.6337497 13.64174781 -50.0762964 12.0542758 -55.5390625 10.07421875 C-61.04649931 8.27057031 -66.75644018 7.23431937 -72.4375 6.125 C-72.1075 5.465 -71.7775 4.805 -71.4375 4.125 C-68.62109375 3.34375 -68.62109375 3.34375 -64.875 2.625 C-63.87811157 2.43272827 -63.87811157 2.43272827 -62.86108398 2.23657227 C-57.24448909 1.19023433 -51.60468992 0.46967992 -45.92944336 -0.17138672 C-42.66219134 -0.5509545 -39.57608039 -1.01358902 -36.4375 -2 C-24.74397929 -5.22526498 -11.59836564 -2.38063731 0 0 Z " fill="#F2ACA4" transform="translate(312.4375,233.875)"/>
<path d="M0 0 C1.32 0.33 2.64 0.66 4 1 C4 64.69 4 128.38 4 194 C0.04 194.99 0.04 194.99 -4 196 C-4 196.66 -4 197.32 -4 198 C-7.465 198.99 -7.465 198.99 -11 200 C-11.33 199.34 -11.66 198.68 -12 198 C-10.68 198 -9.36 198 -8 198 C-7.505 196.02 -7.505 196.02 -7 194 C-5.2984375 193.5978125 -5.2984375 193.5978125 -3.5625 193.1875 C-1.7990625 192.5996875 -1.7990625 192.5996875 0 192 C1.17885016 188.46344952 1.13849494 185.27711961 1.12698364 181.59814453 C1.12854363 180.83815722 1.13010362 180.0781699 1.13171089 179.29515266 C1.13570896 176.74101973 1.13253584 174.18694591 1.12939453 171.6328125 C1.1307491 169.80474818 1.13252935 167.97668413 1.13470459 166.14862061 C1.1392723 161.17767419 1.13749207 156.20674848 1.1343255 151.2358017 C1.1317985 146.04017581 1.1341404 140.84455173 1.13571167 135.64892578 C1.13753237 126.92284832 1.13512967 118.19677931 1.13037109 109.47070312 C1.12492867 99.37383153 1.12669139 89.27698013 1.1321975 79.18010902 C1.13673146 70.52019897 1.13737778 61.860295 1.13475883 53.20038414 C1.13319762 48.0242314 1.13299804 42.84808817 1.13629532 37.67193604 C1.13917813 32.80631818 1.13719074 27.94072642 1.13140106 23.07511139 C1.13007568 21.2864308 1.13046385 19.49774803 1.13266373 17.7090683 C1.13538387 15.27330075 1.13198342 12.8376176 1.12698364 10.40185547 C1.12921436 9.68892397 1.13144509 8.97599247 1.13374341 8.24145699 C1.12162142 5.21050515 0.96706025 2.90118074 0 0 Z " fill="#D05C4A" transform="translate(420,73)"/>
<path d="M0 0 C1.65 0 3.3 0 5 0 C4.01 0.33 3.02 0.66 2 1 C2.33 64.36 2.66 127.72 3 193 C2.01 192.67 1.02 192.34 0 192 C0 128.64 0 65.28 0 0 Z " fill="#6D3329" transform="translate(153,74)"/>
<path d="M0 0 C9.17142857 1.01904762 9.17142857 1.01904762 14 3 C16.66404202 3.4506838 19.30924507 3.72636391 22 4 C22 4.33 22 4.66 22 5 C16.21408489 5.10477512 10.70690634 4.99250545 5 4 C5 5.32 5 6.64 5 8 C4.01 8 3.02 8 2 8 C1.67 74 1.34 140 1 208 C0.67 208 0.34 208 0 208 C0 139.36 0 70.72 0 0 Z " fill="#C44D3F" transform="translate(175,64)"/>
<path d="M0 0 C10.125 3.375 10.125 3.375 14.0625 5.6875 C14.81660156 6.12449219 15.57070313 6.56148438 16.34765625 7.01171875 C16.89292969 7.33785156 17.43820312 7.66398437 18 8 C14.98968256 8.93423645 14.13349732 9.04449911 11 8 C11 7.01 11 6.02 11 5 C7.7 4.67 4.4 4.34 1 4 C1.33 71.65 1.66 139.3 2 209 C2.99 209.33 3.98 209.66 5 210 C4.01 210.99 4.01 210.99 3 212 C2.01 212 1.02 212 0 212 C0 142.04 0 72.08 0 0 Z " fill="#CC5042" transform="translate(402,64)"/>
<path d="M0 0 C0.33 0 0.66 0 1 0 C1 68.31 1 136.62 1 207 C0.67 207 0.34 207 0 207 C0 140.01 0 73.02 0 4 C-0.66 4 -1.32 4 -2 4 C-1.34 2.68 -0.68 1.36 0 0 Z " fill="#9E3123" transform="translate(174,66)"/>
<path d="M0 0 C1.32 0.33 2.64 0.66 4 1 C4 64.69 4 128.38 4 194 C3.34 193.67 2.68 193.34 2 193 C2.00184359 192.02963177 2.00368717 191.05926353 2.00558662 190.0594902 C2.04995332 166.46621221 2.08283612 142.87293962 2.10362434 119.27962875 C2.11394415 107.87016061 2.12801793 96.46072 2.15087891 85.05126953 C2.17079123 75.10870701 2.18371131 65.16616442 2.18817699 55.22358251 C2.19078803 49.95734646 2.19693972 44.69116744 2.21146011 39.42494965 C2.22500993 34.47071298 2.22922791 29.51655698 2.22621536 24.56230354 C2.22676669 22.7417895 2.23075958 20.92127282 2.23841095 19.10077477 C2.24833152 16.61914631 2.24597948 14.13782421 2.24050903 11.65618896 C2.24924756 10.57058217 2.24924756 10.57058217 2.25816262 9.46304393 C2.23632221 5.8084789 2.0115314 3.10722856 0 0 Z " fill="#A15144" transform="translate(420,73)"/>
<path d="M0 0 C-1.65 0.33 -3.3 0.66 -5 1 C-5 26.41 -5 51.82 -5 78 C-2.03 77.505 -2.03 77.505 1 77 C1 76.34 1 75.68 1 75 C3.64 74.67 6.28 74.34 9 74 C7.61688137 76.76623726 6.099163 76.95402386 3.25 78.0625 C2.38890625 78.40410156 1.5278125 78.74570312 0.640625 79.09765625 C-2 80 -2 80 -7 81 C-7 54.27 -7 27.54 -7 0 C-3.86650268 -1.04449911 -3.01031744 -0.93423645 0 0 Z " fill="#C84B3B" transform="translate(295,252)"/>
<path d="M0 0 C0.33 0 0.66 0 1 0 C1 5.61 1 11.22 1 17 C2.97419922 17.07347656 2.97419922 17.07347656 4.98828125 17.1484375 C23.08316867 17.89350086 23.08316867 17.89350086 32 20 C32 20.33 32 20.66 32 21 C29.62494478 20.8550291 27.24995972 20.70902146 24.875 20.5625 C24.22917969 20.52318359 23.58335937 20.48386719 22.91796875 20.44335938 C15.94094602 20.01144844 8.97386768 19.49813341 2 19 C1.67 45.4 1.34 71.8 1 99 C2.65 99 4.3 99 6 99 C4.02 99.99 4.02 99.99 2 101 C1.67 106.61 1.34 112.22 1 118 C0.67 118 0.34 118 0 118 C0 112.06 0 106.12 0 100 C-2.64 100 -5.28 100 -8 100 C-11 99.5 -11 99.5 -13 99 C-13 98.67 -13 98.34 -13 98 C-11.39592672 97.97291433 -9.7917215 97.95356517 -8.1875 97.9375 C-7.29417969 97.92589844 -6.40085937 97.91429687 -5.48046875 97.90234375 C-3 98 -3 98 0 99 C0 72.27 0 45.54 0 18 C-1.32 17.67 -2.64 17.34 -4 17 C-2.68 17 -1.36 17 0 17 C0 11.39 0 5.78 0 0 Z " fill="#B44030" transform="translate(288,112)"/>
<path d="M0 0 C0.33 0 0.66 0 1 0 C1 26.07 1 52.14 1 79 C15.9852578 78.64319128 15.9852578 78.64319128 30 75 C32.2072923 74.92907158 34.41667452 74.91584975 36.625 74.9375 C37.81351562 74.94652344 39.00203125 74.95554687 40.2265625 74.96484375 C41.59941406 74.98224609 41.59941406 74.98224609 43 75 C43 75.33 43 75.66 43 76 C28.52269302 78.26148087 14.72634371 80 0 80 C0 53.6 0 27.2 0 0 Z " fill="#D25140" transform="translate(289,131)"/>
<path d="M0 0 C-0.639375 0.103125 -1.27875 0.20625 -1.9375 0.3125 C-2.618125 0.539375 -3.29875 0.76625 -4 1 C-4.33 1.99 -4.66 2.98 -5 4 C-5.928125 3.9175 -6.85625 3.835 -7.8125 3.75 C-11.23835147 3.74316197 -13.82149145 4.5629518 -17 5.8125 C-24.82560234 8.86480963 -33.01562044 10.21860083 -41.2890625 11.515625 C-44.03115492 11.9055249 -44.03115492 11.9055249 -46.5625 13.0625 C-49.21261187 14.0817738 -51.18631755 14.16078185 -54 14 C-54 13.34 -54 12.68 -54 12 C-48.92251214 9.77859906 -43.94694185 8.52129302 -38.5 7.5625 C-32.8578156 6.5689619 -27.30233108 5.41451288 -21.75 4 C-21.0904834 3.83226074 -20.4309668 3.66452148 -19.75146484 3.49169922 C-16.62963788 2.69085234 -13.51324736 1.87065684 -10.3984375 1.04296875 C-9.31820312 0.76066406 -8.23796875 0.47835937 -7.125 0.1875 C-6.17882812 -0.06644531 -5.23265625 -0.32039063 -4.2578125 -0.58203125 C-2 -1 -2 -1 0 0 Z " fill="#642D24" transform="translate(398,65)"/>
<path d="M0 0 C3.49397942 0.87349485 5.68637013 1.80541816 8.75 3.5625 C9.94882812 4.24505859 9.94882812 4.24505859 11.171875 4.94140625 C11.77515625 5.29074219 12.3784375 5.64007813 13 6 C11.68 6.33 10.36 6.66 9 7 C9 6.34 9 5.68 9 5 C8.21625 4.855625 7.4325 4.71125 6.625 4.5625 C4 4 4 4 2 3 C1.67 29.07 1.34 55.14 1 82 C0.67 82 0.34 82 0 82 C0 54.94 0 27.88 0 0 Z " fill="#BA4333" transform="translate(288,7)"/>
<path d="M0 0 C0.33 0 0.66 0 1 0 C1.90482048 5.38195986 2.13304442 10.5446932 2.09765625 15.99609375 C2.0962413 16.82963882 2.09482635 17.6631839 2.09336853 18.52198792 C2.08781168 21.16052986 2.0752674 23.79898409 2.0625 26.4375 C2.05747942 28.23632689 2.05291749 30.03515513 2.04882812 31.83398438 C2.03785643 36.22268958 2.02062196 40.61132996 2 45 C2.804375 45.268125 3.60875 45.53625 4.4375 45.8125 C5.283125 46.204375 6.12875 46.59625 7 47 C7.33 47.99 7.66 48.98 8 50 C5.36 49.34 2.72 48.68 0 48 C0 32.16 0 16.32 0 0 Z " fill="#7E3A2F" transform="translate(239,263)"/>
<path d="M0 0 C1.134375 0.020625 2.26875 0.04125 3.4375 0.0625 C-0.3125 2.0625 -0.3125 2.0625 -2.5625 2.0625 C-2.8925 24.5025 -3.2225 46.9425 -3.5625 70.0625 C-2.5725 70.3925 -1.5825 70.7225 -0.5625 71.0625 C-1.8825 71.0625 -3.2025 71.0625 -4.5625 71.0625 C-4.58562545 61.95290835 -4.60341612 52.84332674 -4.61431217 43.7337122 C-4.61954056 39.50418629 -4.6266374 35.2746804 -4.63793945 31.04516602 C-4.64876991 26.96681457 -4.65477717 22.88848243 -4.65737724 18.81011772 C-4.65923121 17.25072361 -4.66285127 15.6913306 -4.66823006 14.13194466 C-4.67544262 11.95520838 -4.67649085 9.77855286 -4.67602539 7.60180664 C-4.678246 6.36048477 -4.68046661 5.1191629 -4.68275452 3.84022522 C-4.50260369 -0.32102794 -4.29848513 0.07541202 0 0 Z " fill="#9E3421" transform="translate(243.5625,134.9375)"/>
<path d="M0 0 C0.33 0 0.66 0 1 0 C1 15.18 1 30.36 1 46 C-9 51 -9 51 -11 51 C-11 50.34 -11 49.68 -11 49 C-10.360625 48.71125 -9.72125 48.4225 -9.0625 48.125 C-6.84793921 47.17176549 -6.84793921 47.17176549 -6 45 C-4.02 45 -2.04 45 0 45 C0 30.15 0 15.3 0 0 Z " fill="#BB594F" transform="translate(337,264)"/>
<path d="M0 0 C0 0.99 0 1.98 0 3 C-1.98 3.99 -1.98 3.99 -4 5 C-4 5.66 -4 6.32 -4 7 C-4.63808594 7.13277344 -5.27617187 7.26554687 -5.93359375 7.40234375 C-7.17302734 7.66724609 -7.17302734 7.66724609 -8.4375 7.9375 C-9.26121094 8.11152344 -10.08492187 8.28554687 -10.93359375 8.46484375 C-12.97661204 8.80752994 -12.97661204 8.80752994 -14 10 C-15.99958364 10.04080783 -18.00045254 10.04254356 -20 10 C-16.85881272 7.47798906 -13.60307137 5.66752801 -10 3.875 C-8.453125 3.09769531 -8.453125 3.09769531 -6.875 2.3046875 C-4.54065104 1.24534979 -2.50007131 0.49280252 0 0 Z " fill="#853528" transform="translate(174,64)"/>
<path d="M0 0 C0 0.33 0 0.66 0 1 C-0.83023682 1.15819214 -0.83023682 1.15819214 -1.67724609 1.31958008 C-14.98354351 3.83297725 -14.98354351 3.83297725 -28.01171875 7.47265625 C-31.08107882 8.28673014 -33.8447125 8.20577962 -37 8 C-36.67 7.01 -36.34 6.02 -36 5 C-36 5.66 -36 6.32 -36 7 C-35.35933594 6.80664062 -34.71867188 6.61328125 -34.05859375 6.4140625 C-11.33727811 -0.4260355 -11.33727811 -0.4260355 0 0 Z " fill="#B85046" transform="translate(212,268)"/>
<path d="M0 0 C-3.22217092 2.14811394 -5.53699045 2.63793043 -9.2578125 3.33984375 C-9.83273438 3.55769531 -10.40765625 3.77554688 -11 4 C-11.33 4.99 -11.66 5.98 -12 7 C-20.57142857 6.14285714 -20.57142857 6.14285714 -24 4 C-22.02905074 2.02905074 -18.61938166 1.97182738 -15.9375 1.4375 C-15.2580835 1.30110107 -14.57866699 1.16470215 -13.87866211 1.02416992 C-9.13783312 0.11589349 -4.80465225 -0.29416238 0 0 Z " fill="#F2998C" transform="translate(264,235)"/>
<path d="M0 0 C5.92698549 0.45316992 11.30036915 1.23114905 17 3 C20.17167805 3.75246444 23.34547737 4.49326034 26.5234375 5.21875 C27.34070313 5.4765625 28.15796875 5.734375 29 6 C29.33 6.66 29.66 7.32 30 8 C23.375 8.25 23.375 8.25 20 6 C17.61700383 5.55058745 15.21774516 5.18393057 12.8125 4.875 C11.54019531 4.70742187 10.26789063 4.53984375 8.95703125 4.3671875 C7.49330078 4.18542969 7.49330078 4.18542969 6 4 C6 3.34 6 2.68 6 2 C3.03 1.505 3.03 1.505 0 1 C0 0.67 0 0.34 0 0 Z " fill="#701E12" transform="translate(307,95)"/>
<path d="M0 0 C9.07519588 0.37734702 17.33318919 2.48533829 26 5 C26 5.33 26 5.66 26 6 C22.04 6 18.08 6 14 6 C14 5.34 14 4.68 14 4 C12.7625 4.061875 12.7625 4.061875 11.5 4.125 C7.38008185 3.97786007 3.96852693 3.09476605 0 2 C0 1.34 0 0.68 0 0 Z " fill="#B95348" transform="translate(202,71)"/>
<path d="M0 0 C8.66454026 -0.43322701 17.29035701 0.78808103 25 5 C25 5.66 25 6.32 25 7 C22.36 6.67 19.72 6.34 17 6 C17 5.34 17 4.68 17 4 C16.03900391 3.92652344 16.03900391 3.92652344 15.05859375 3.8515625 C9.78803915 3.3959855 5.03013712 2.6402621 0 1 C0 0.67 0 0.34 0 0 Z " fill="#6C2E25" transform="translate(339,261)"/>
<path d="M0 0 C3.49397942 0.87349485 5.68637013 1.80541816 8.75 3.5625 C9.94882812 4.24505859 9.94882812 4.24505859 11.171875 4.94140625 C11.77515625 5.29074219 12.3784375 5.64007813 13 6 C11.68 6.33 10.36 6.66 9 7 C9 6.34 9 5.68 9 5 C8.21625 4.855625 7.4325 4.71125 6.625 4.5625 C4 4 4 4 2 3 C1.67 9.93 1.34 16.86 1 24 C0.67 24 0.34 24 0 24 C0 16.08 0 8.16 0 0 Z " fill="#B14336" transform="translate(288,7)"/>
<path d="M0 0 C0.66644531 0.0721875 1.33289063 0.144375 2.01953125 0.21875 C8.70510535 0.89198264 15.2830148 1.11693011 22 1 C22 1.99 22 2.98 22 4 C22.66 4 23.32 4 24 4 C24 4.66 24 5.32 24 6 C15.86579246 4.77409993 7.94952546 3.1142355 0 1 C0 0.67 0 0.34 0 0 Z " fill="#BC4A3B" transform="translate(296,91)"/>
<path d="M0 0 C0.99 0.33 1.98 0.66 3 1 C2.34 1 1.68 1 1 1 C1 1.66 1 2.32 1 3 C-1.91803177 5.995639 -5.12232653 8.68282543 -9.3125 9.390625 C-11.5 9.375 -11.5 9.375 -15 9 C-11.24908805 5.70374405 -7.60784596 3.87727058 -3 2 C-2.01 1.34 -1.02 0.68 0 0 Z " fill="#6F2E23" transform="translate(261,19)"/>
<path d="M0 0 C0.33 0 0.66 0 1 0 C1 6.93 1 13.86 1 21 C-5.76144905 21 -8.1563886 20.46046796 -14 18 C-14 17.67 -14 17.34 -14 17 C-11.69 17 -9.38 17 -7 17 C-7 17.66 -7 18.32 -7 19 C-4.69 19.33 -2.38 19.66 0 20 C0 13.4 0 6.8 0 0 Z " fill="#CA4F41" transform="translate(337,80)"/>
<path d="M0 0 C9.88021826 -0.55925764 18.7717699 2.78720878 28 6 C21.73221614 8.08926129 14.80930045 5.04924438 8.89453125 2.6640625 C5.95997371 1.6354547 3.08590497 1.32144843 0 1 C0 0.67 0 0.34 0 0 Z " fill="#482119" transform="translate(364,268)"/>
<path d="M0 0 C8.37220563 1.14888661 16.69996456 2.4077483 25 4 C25 4.33 25 4.66 25 5 C22.33259077 4.88481642 19.66652759 4.75810454 17 4.625 C16.25621094 4.5940625 15.51242188 4.563125 14.74609375 4.53125 C9.59432517 4.26246207 4.97007244 3.38936116 0 2 C0 1.34 0 0.68 0 0 Z " fill="#C64F43" transform="translate(239,102)"/>
<path d="M0 0 C-1.98 0.66 -3.96 1.32 -6 2 C-6 2.99 -6 3.98 -6 5 C-7.98 5.66 -9.96 6.32 -12 7 C-12 7.66 -12 8.32 -12 9 C-14.97 8.505 -14.97 8.505 -18 8 C-15.3401439 4.55783328 -12.09711714 4.00495326 -8 3 C-8 2.34 -8 1.68 -8 1 C-2.25 -1.125 -2.25 -1.125 0 0 Z " fill="#5C2920" transform="translate(282,11)"/>
<path d="M0 0 C1.18851562 0.00902344 2.37703125 0.01804688 3.6015625 0.02734375 C4.51679688 0.03894531 5.43203125 0.05054688 6.375 0.0625 C6.375 0.3925 6.375 0.7225 6.375 1.0625 C3.20986722 1.57253854 0.04269716 2.06865957 -3.125 2.5625 C-4.4553125 2.77712891 -4.4553125 2.77712891 -5.8125 2.99609375 C-11.15576099 3.82115611 -16.21896514 4.21407107 -21.625 4.0625 C-21.625 3.7325 -21.625 3.4025 -21.625 3.0625 C-20.70976562 2.92972656 -19.79453125 2.79695312 -18.8515625 2.66015625 C-17.66304688 2.48355469 -16.47453125 2.30695313 -15.25 2.125 C-14.06664062 1.95097656 -12.88328125 1.77695313 -11.6640625 1.59765625 C-2.45458243 -0.02406453 -2.45458243 -0.02406453 0 0 Z " fill="#BF4736" transform="translate(325.625,205.9375)"/>
<path d="M0 0 C-0.969375 0.474375 -1.93875 0.94875 -2.9375 1.4375 C-5.80477437 2.70193947 -5.80477437 2.70193947 -7 4 C-9.01964199 4.07244053 -11.04167124 4.08377188 -13.0625 4.0625 C-14.16722656 4.05347656 -15.27195312 4.04445312 -16.41015625 4.03515625 C-17.69212891 4.01775391 -17.69212891 4.01775391 -19 4 C-15.59092003 1.72728002 -12.93257881 1.15944018 -8.9375 0.3125 C-7.68839844 0.04050781 -6.43929688 -0.23148438 -5.15234375 -0.51171875 C-2 -1 -2 -1 0 0 Z " fill="#DD675A" transform="translate(336,241)"/>
<path d="M0 0 C0.66 0.33 1.32 0.66 2 1 C1.360625 1.103125 0.72125 1.20625 0.0625 1.3125 C-0.618125 1.539375 -1.29875 1.76625 -2 2 C-2.33 2.99 -2.66 3.98 -3 5 C-7.95 5 -12.9 5 -18 5 C-18 4.67 -18 4.34 -18 4 C-16.95199219 3.79503906 -15.90398437 3.59007813 -14.82421875 3.37890625 C-13.44529231 3.10687314 -12.06638717 2.83473209 -10.6875 2.5625 C-9.65206055 2.36043945 -9.65206055 2.36043945 -8.59570312 2.15429688 C-5.65710993 1.57225668 -2.84543315 0.94847772 0 0 Z " fill="#622D1F" transform="translate(396,64)"/>
<path d="M0 0 C0.763125 0.20625 1.52625 0.4125 2.3125 0.625 C-0.48828034 2.49218689 -3.31475376 4.16704238 -6.25 5.8125 C-7.22066406 6.36292969 -8.19132812 6.91335938 -9.19140625 7.48046875 C-10.01511719 7.85816406 -10.83882813 8.23585938 -11.6875 8.625 C-12.3475 8.295 -13.0075 7.965 -13.6875 7.625 C-11.9375 5.625 -11.9375 5.625 -9.6875 3.625 C-8.3675 3.625 -7.0475 3.625 -5.6875 3.625 C-5.6875 2.965 -5.6875 2.305 -5.6875 1.625 C-2.6875 -0.375 -2.6875 -0.375 0 0 Z " fill="#C25246" transform="translate(317.6875,317.375)"/>
<path d="M0 0 C-0.33 1.32 -0.66 2.64 -1 4 C-4.3 4.33 -7.6 4.66 -11 5 C-8 1 -8 1 -6.0625 0.25 C-4 0 -4 0 0 0 Z " fill="#A1433A" transform="translate(232,261)"/>
<path d="M0 0 C2.97 0.33 5.94 0.66 9 1 C9 1.33 9 1.66 9 2 C6.69 2.33 4.38 2.66 2 3 C1.67 8.61 1.34 14.22 1 20 C0.67 20 0.34 20 0 20 C0 13.4 0 6.8 0 0 Z " fill="#9F3B29" transform="translate(239,240)"/>
<path d="M0 0 C1.43861294 0.08746284 2.87597508 0.19565348 4.3125 0.3125 C5.11300781 0.37050781 5.91351563 0.42851562 6.73828125 0.48828125 C9.39066259 1.08838825 10.36503879 1.85708967 12 4 C12 4.66 12 5.32 12 6 C5.25 4.125 5.25 4.125 3 3 C3 2.34 3 1.68 3 1 C2.01 0.67 1.02 0.34 0 0 Z " fill="#5E2A1F" transform="translate(248,314)"/>
<path d="M0 0 C-4.9748792 3.31658613 -11.03568353 4.38479461 -17 4 C-16.4225 3.731875 -15.845 3.46375 -15.25 3.1875 C-12.94806808 2.11417785 -12.94806808 2.11417785 -11.3125 0.3125 C-7.63036199 -1.77736211 -4.04459765 -0.71731112 0 0 Z " fill="#FAA093" transform="translate(337,239)"/>
<path d="M0 0 C2.39614126 -0.05425226 4.79103853 -0.09379027 7.1875 -0.125 C8.19780273 -0.15013672 8.19780273 -0.15013672 9.22851562 -0.17578125 C13.28807807 -0.21538674 16.34998815 0.19979998 20 2 C20 2.33 20 2.66 20 3 C13.30992818 2.47594437 6.6512513 1.89536075 0 1 C0 0.67 0 0.34 0 0 Z " fill="#721E15" transform="translate(264,106)"/>
<path d="M0 0 C-1.90881434 1.03544174 -3.82739204 2.05290085 -5.75 3.0625 C-6.81734375 3.63097656 -7.8846875 4.19945312 -8.984375 4.78515625 C-12.02593537 6.01044806 -13.04893565 6.25348607 -16 5 C-11.375 2 -11.375 2 -8 2 C-8 1.34 -8 0.68 -8 0 C-2.25 -1.125 -2.25 -1.125 0 0 Z " fill="#B35147" transform="translate(304,327)"/>
<path d="M0 0 C-1.98 0.66 -3.96 1.32 -6 2 C-6 2.66 -6 3.32 -6 4 C-8.31 4.66 -10.62 5.32 -13 6 C-13.33 5.34 -13.66 4.68 -14 4 C-12.68 4 -11.36 4 -10 4 C-9.67 2.68 -9.34 1.36 -9 0 C-3.375 -1.125 -3.375 -1.125 0 0 Z " fill="#BC5348" transform="translate(422,267)"/>
<path d="M0 0 C4.85963179 0.60745397 8.7405518 2.72758967 13 5 C13 5.33 13 5.66 13 6 C9.05272412 6.17942163 6.4019487 6.09350689 3 4 C3 3.34 3 2.68 3 2 C2.01 2 1.02 2 0 2 C0 1.34 0 0.68 0 0 Z " fill="#B95246" transform="translate(317,22)"/>
<path d="M0 0 C0.74507813 0.00902344 1.49015625 0.01804687 2.2578125 0.02734375 C4.08868059 0.05081642 5.91938238 0.08668475 7.75 0.125 C7.75 0.455 7.75 0.785 7.75 1.125 C0.70678017 2.71795252 -5.10650045 3.2960655 -12.25 2.125 C-8.4084024 -0.44280471 -4.4360825 -0.10188882 0 0 Z " fill="#6F2316" transform="translate(296.25,107.875)"/>
<path d="M0 0 C3.87540045 -0.17615457 6.75515269 -0.28341107 10 2 C10.33 2.99 10.66 3.98 11 5 C6.87248551 4.39301257 3.6678852 2.96189209 0 1 C0 0.67 0 0.34 0 0 Z " fill="#5D2A24" transform="translate(266,323)"/>
<path d="M0 0 C1.5 1.375 1.5 1.375 3 3 C3 3.66 3 4.32 3 5 C-3.27 4.67 -9.54 4.34 -16 4 C-16 3.67 -16 3.34 -16 3 C-10.72 3 -5.44 3 0 3 C0 2.01 0 1.02 0 0 Z " fill="#151515" transform="translate(104,368)"/>
<path d="M0 0 C1.48206495 0.254496 2.96068615 0.52911762 4.4375 0.8125 C5.67306641 1.03873047 5.67306641 1.03873047 6.93359375 1.26953125 C7.95646484 1.63111328 7.95646484 1.63111328 9 2 C9.33 2.99 9.66 3.98 10 5 C10.99 5 11.98 5 13 5 C13 5.66 13 6.32 13 7 C8.1725201 5.58707905 4.2837641 3.57025846 0 1 C0 0.67 0 0.34 0 0 Z " fill="#502218" transform="translate(159,269)"/>
<path d="M0 0 C0 0.99 0 1.98 0 3 C0.639375 3.12375 1.27875 3.2475 1.9375 3.375 C2.618125 3.58125 3.29875 3.7875 4 4 C4.33 4.66 4.66 5.32 5 6 C3.51882199 5.71872579 2.04006751 5.42466268 0.5625 5.125 C-0.26121094 4.96257812 -1.08492187 4.80015625 -1.93359375 4.6328125 C-2.61550781 4.42398437 -3.29742187 4.21515625 -4 4 C-4.33 3.34 -4.66 2.68 -5 2 C-2 0 -2 0 0 0 Z " fill="#763225" transform="translate(161,265)"/>
<path d="M0 0 C0 0.99 0 1.98 0 3 C-3.4019487 5.09350689 -6.05272412 5.17942163 -10 5 C-3.63636364 0 -3.63636364 0 0 0 Z " fill="#612D22" transform="translate(164,69)"/>
<path d="M0 0 C2.31 0 4.62 0 7 0 C7 0.66 7 1.32 7 2 C8.65 2.33 10.3 2.66 12 3 C8.69564916 4.12377697 6.9493138 3.89554742 3.75 2.5625 C3.04359375 2.27503906 2.3371875 1.98757812 1.609375 1.69140625 C1.07828125 1.46324219 0.5471875 1.23507813 0 1 C0 0.67 0 0.34 0 0 Z " fill="#B14336" transform="translate(323,97)"/>
<path d="M0 0 C0 0.66 0 1.32 0 2 C-6.45 6.09326923 -6.45 6.09326923 -9.234375 5.62109375 C-9.81703125 5.41613281 -10.3996875 5.21117187 -11 5 C-9.54462432 4.16151196 -8.08559627 3.32936066 -6.625 2.5 C-5.81289063 2.0359375 -5.00078125 1.571875 -4.1640625 1.09375 C-2 0 -2 0 0 0 Z " fill="#451610" transform="translate(317,320)"/>
<path d="M0 0 C-3.00617269 3.00617269 -5.82381598 2.59585316 -10 3 C-10 2.34 -10 1.68 -10 1 C-6.52674819 -0.1577506 -3.63932552 -0.06866652 0 0 Z " fill="#6E2F27" transform="translate(354,76)"/>
<path d="M0 0 C4.50802601 1.25805377 7.4912812 2.90407165 11 6 C8.69 5.67 6.38 5.34 4 5 C4 4.01 4 3.02 4 2 C2.68 1.67 1.36 1.34 0 1 C0 0.67 0 0.34 0 0 Z " fill="#95443A" transform="translate(409,67)"/>
<path d="M0 0 C4.3890815 0.51035831 7.33708062 1.52214277 11 4 C9.68 4.33 8.36 4.66 7 5 C7 4.34 7 3.68 7 3 C5.824375 2.814375 5.824375 2.814375 4.625 2.625 C2 2 2 2 0 0 Z " fill="#B55247" transform="translate(290,9)"/>
<path d="M0 0 C0 0.66 0 1.32 0 2 C-5.45769231 5.10096154 -5.45769231 5.10096154 -8.203125 4.58984375 C-8.79609375 4.39519531 -9.3890625 4.20054687 -10 4 C-8.71086513 3.32845067 -7.41859796 2.66291141 -6.125 2 C-5.40570313 1.62875 -4.68640625 1.2575 -3.9453125 0.875 C-2 0 -2 0 0 0 Z " fill="#3C120E" transform="translate(332,313)"/>
<path d="M0 0 C2.31 0.33 4.62 0.66 7 1 C7.33 1.99 7.66 2.98 8 4 C5.36 3.34 2.72 2.68 0 2 C0 1.34 0 0.68 0 0 Z " fill="#622C22" transform="translate(239,309)"/>
<path d="M0 0 C1.98 0.66 3.96 1.32 6 2 C6 2.99 6 3.98 6 5 C4.35 4.67 2.7 4.34 1 4 C0.67 2.68 0.34 1.36 0 0 Z " fill="#BA564C" transform="translate(402,64)"/>
<path d="M0 0 C1.98 0.66 3.96 1.32 6 2 C6 2.66 6 3.32 6 4 C6.99 4.33 7.98 4.66 9 5 C7.35 5 5.7 5 4 5 C3.67 4.01 3.34 3.02 3 2 C2.01 2 1.02 2 0 2 C0 1.34 0 0.68 0 0 Z " fill="#79342C" transform="translate(169,272)"/>
<path d="M0 0 C-0.33 0.99 -0.66 1.98 -1 3 C-3.31 3.33 -5.62 3.66 -8 4 C-6.4425489 0.88509781 -3.40085499 0 0 0 Z " fill="#5A2D1D" transform="translate(172,65)"/>
<path d="M0 0 C0.99 0.33 1.98 0.66 3 1 C2.34 1 1.68 1 1 1 C1 1.66 1 2.32 1 3 C-2 5 -2 5 -4.1875 4.625 C-4.785625 4.41875 -5.38375 4.2125 -6 4 C-3.1875 1.9375 -3.1875 1.9375 0 0 Z " fill="#5D2722" transform="translate(261,19)"/>
</svg>
